<?xml version="1.0" standalone="no"?>
<!DOCTYPE svg PUBLIC "-//W3C//DTD SVG 20010904//EN"
 "http://www.w3.org/TR/2001/REC-SVG-20010904/DTD/svg10.dtd">
<svg version="1.0" xmlns="http://www.w3.org/2000/svg"
 width="700.000000pt" height="700.000000pt" viewBox="0 0 700.000000 700.000000"
 preserveAspectRatio="xMidYMid meet">
<metadata>
Created by potrace 1.14, written by Peter Selinger 2001-2017
</metadata>
<g transform="translate(0.000000,700.000000) scale(0.100000,-0.100000)"
fill="#000000" stroke="none">
<path d="M2929 6815 c-1 -25 2 -159 6 -285 2 -52 6 -212 10 -355 3 -143 8
-307 10 -365 2 -58 6 -202 10 -320 3 -118 8 -280 10 -360 3 -80 7 -235 10
-345 6 -255 15 -528 20 -676 l4 -116 -92 33 c-51 18 -175 63 -277 99 -102 37
-239 87 -305 110 -66 24 -277 100 -470 170 -192 70 -361 131 -375 135 -43 14
-1084 390 -1109 401 -13 5 -25 8 -26 7 -1 -2 -37 -109 -79 -238 -42 -129 -81
-244 -86 -255 -4 -11 -40 -119 -80 -240 -39 -121 -73 -227 -76 -235 -3 -8 -5
-16 -5 -17 0 -2 -7 -19 -15 -39 -8 -20 -14 -38 -12 -39 2 -2 107 -33 233 -70
127 -37 275 -80 330 -97 55 -16 125 -36 155 -44 30 -8 107 -30 170 -49 63 -19
216 -63 340 -99 124 -36 367 -106 540 -157 173 -50 344 -100 380 -110 215 -60
553 -160 565 -167 13 -7 13 -10 0 -27 -8 -11 -93 -119 -187 -240 -95 -121
-247 -317 -340 -435 -92 -118 -171 -219 -176 -225 -23 -29 -553 -709 -591
-760 -25 -33 -48 -62 -52 -65 -3 -3 -78 -99 -168 -215 -90 -116 -174 -223
-187 -239 -13 -17 -24 -33 -24 -36 0 -6 155 -121 580 -433 96 -70 182 -133
190 -140 63 -51 153 -108 160 -101 5 5 52 74 106 154 53 80 152 226 219 325
166 245 332 491 587 870 119 176 288 428 378 560 89 132 189 282 223 332 34
51 64 93 67 93 4 0 258 -371 285 -417 6 -9 13 -22 18 -27 21 -29 106 -155 675
-1001 86 -126 219 -324 297 -440 78 -116 179 -265 224 -332 45 -68 85 -123 89
-123 4 0 63 42 132 93 69 50 275 202 458 336 183 134 332 247 332 250 0 4 -24
36 -52 73 -50 63 -235 300 -323 413 -22 29 -94 121 -160 206 -66 84 -144 185
-174 224 -50 63 -154 197 -184 235 -25 31 -518 663 -679 870 -92 118 -164 217
-160 221 4 3 111 35 237 72 216 61 562 162 1205 349 151 44 289 83 305 88 17
4 156 44 310 89 154 44 321 92 370 107 50 14 101 29 115 34 14 5 60 19 103 31
50 14 76 27 73 34 -2 7 -82 246 -177 531 -95 285 -173 520 -174 521 -1 2 -154
-53 -341 -121 -186 -67 -368 -133 -404 -146 -36 -13 -81 -29 -100 -36 -19 -7
-84 -30 -145 -52 -608 -219 -792 -285 -990 -357 -126 -46 -288 -104 -360 -130
-71 -25 -169 -61 -218 -79 -48 -19 -89 -31 -91 -27 -2 3 -3 53 -1 111 2 58 7
204 10 325 3 121 7 281 10 355 2 74 7 223 10 330 13 487 16 582 20 690 2 63 7
228 11 365 3 138 7 288 9 335 4 95 7 299 6 315 -1 7 -191 10 -571 10 -565 0
-570 0 -571 -20z"/>
</g>
</svg>
