<svg width="499" height="132" viewBox="0 0 499 132" fill="none" xmlns="http://www.w3.org/2000/svg">
<path d="M472.314 131.52C462.915 131.52 455.582 127.034 455.582 121.196C455.582 118.276 457.219 116.425 459.925 116.425C462.488 116.425 464.126 118.063 464.126 120.484C464.126 122.691 462.915 124.115 460.922 124.328V124.613C463.058 127.034 467.614 128.6 472.385 128.6C483.065 128.6 488.69 122.05 488.69 109.661C488.69 105.033 488.262 100.832 487.337 95.2788L484.204 77.194L480.573 80.042C478.152 82.0356 477.226 83.7444 477.226 86.45V94.7803C477.226 100.548 476.443 102.399 471.744 107.668L469.252 110.444L472.598 113.435C474.094 114.788 475.09 115.286 476.372 115.286C477.369 115.286 478.081 114.859 480.146 112.936L481.712 114.36L474.022 122.406L463.485 113.435L467.472 108.949C470.462 105.532 471.032 103.68 471.032 97.2011V85.6668C471.032 77.2652 468.682 73.3492 463.556 73.3492C460.21 73.3492 457.86 75.6275 457.86 79.0452C457.86 81.0388 458.501 82.4627 460.423 84.5987L462.274 86.6636C465.194 89.9387 466.262 92.0748 466.262 94.638C466.262 99.6932 462.702 102.826 457.006 102.826C452.022 102.826 449.174 99.4796 449.886 94.3531H452.164C451.808 98.0556 453.659 100.405 457.006 100.405C459.711 100.405 461.349 98.91 461.349 96.418C461.349 94.7804 460.494 93.4276 458.002 90.722L455.866 88.4436C453.659 86.094 452.734 83.958 452.734 81.1812C452.734 75.414 457.575 70.9995 463.841 70.9995C470.818 70.9995 475.162 74.3459 476.657 80.8963H476.942C477.369 79.7571 478.223 78.7604 479.576 77.6924L489.402 69.8604L493.389 92.6443C494.528 98.9099 494.884 102.684 494.884 107.169C494.884 122.62 486.625 131.52 472.314 131.52Z" fill="#A6A09B"/>
<path d="M418.064 117.138C412.083 117.138 408.096 113.578 408.096 108.166C408.096 105.532 409.591 103.823 411.869 103.823C414.076 103.823 415.358 105.105 415.358 107.312C415.358 109.448 413.863 110.73 411.656 110.445L411.442 110.658C411.798 112.866 414.504 114.503 417.85 114.503C421.766 114.503 423.973 112.652 423.973 109.377C423.973 107.668 423.261 106.03 421.624 104.179L417.209 99.2664C413.222 94.7808 411.727 91.8616 411.727 88.6576C411.727 83.816 414.219 80.0424 420.983 74.7736L425.824 71C429.242 75.0584 431.449 76.696 433.585 76.696C435.294 76.696 436.647 75.8416 437.573 73.9904L438.285 72.6376L440.065 73.4208L439.353 75.1296C437.359 79.9 434.796 82.036 431.236 82.036C428.245 82.036 425.824 80.3984 422.193 76.1264C418.704 79.6864 417.209 82.6768 417.209 86.308C417.209 88.9424 418.277 90.936 421.837 94.852L422.905 96.0624L433.229 88.1592C442.272 89.4408 446.544 94.6384 446.544 104.464C446.544 113.008 444.265 117.707 436.433 125.112L430.809 130.452L424.187 126.18L420.841 130.31L418.989 129.028L425.896 120.27L433.301 125.041L434.582 123.688C438.996 118.989 440.136 115.998 440.136 109.306V104.82C440.136 97.4864 437.644 93.9976 432.446 93.9976C430.239 93.9976 428.174 94.852 424.258 97.4864L426.394 99.9072C428.53 102.257 429.527 104.749 429.527 107.739C429.527 113.293 424.828 117.138 418.064 117.138Z" fill="#A6A09B"/>
<path d="M371.987 131.52C367.501 131.52 364.297 128.956 364.297 125.396C364.297 122.904 365.579 121.552 367.786 121.552C369.851 121.552 371.132 122.762 371.132 124.756C371.132 126.464 370.349 127.604 368.854 127.888V128.102C369.352 128.743 370.492 129.17 371.773 129.17C375.191 129.17 376.472 127.105 376.472 121.694V113.506C375.76 113.435 375.333 113.364 374.906 113.364C372.414 113.364 371.061 114.289 369.922 116.639L369.139 118.276L367.359 117.493L368.142 115.642C369.851 111.299 372.699 109.092 376.472 109.092V85.6668C376.472 77.2652 374.123 73.3492 368.996 73.3492C365.579 73.3492 363.158 75.6275 363.158 78.9027C363.158 80.9675 363.941 82.5339 365.792 84.5987L367.644 86.6636C370.42 89.7251 371.631 92.2884 371.631 94.9228C371.631 99.9068 368.213 102.826 362.375 102.826C357.391 102.826 354.543 99.4796 355.255 94.3531H357.533C357.177 98.0556 359.028 100.405 362.375 100.405C365.009 100.405 366.718 98.8388 366.718 96.4892C366.718 94.7804 366.291 94.0684 362.944 90.366L361.236 88.4436C359.028 85.9516 358.103 83.7444 358.103 81.1812C358.103 75.2716 363.087 70.9995 369.993 70.9995C376.401 70.9995 380.673 74.4883 382.097 80.8963H382.382C382.738 80.1131 383.592 79.1164 384.874 77.9771L394.201 69.8604L399.826 80.3979C403.03 86.3787 404.383 90.9355 404.383 95.4923C404.383 101.26 401.535 107.312 395.483 114.432L388.719 122.406L386.298 119.985C384.518 118.276 383.592 117.28 382.667 116.496V118.988C382.667 126.82 378.608 131.52 371.987 131.52ZM398.473 97.486C398.473 93.4988 397.334 89.7252 394.486 84.3852L390.356 76.5532L385.016 81.1812C383.379 82.6764 382.667 84.314 382.667 86.45V110.587C384.66 111.797 386.298 113.15 389.075 115.927L390.143 116.995L391.638 115.215C396.195 109.804 398.473 103.894 398.473 97.486Z" fill="#A6A09B"/>
<path d="M323.185 122.406L312.861 112.367V111.014C324.253 106.173 325.606 98.9104 325.606 92.36V87.8032C325.606 78.9032 322.758 73.492 317.987 73.492C316.706 73.492 315.424 73.9904 314.783 74.7024V74.916C316.848 74.7736 318.13 75.984 318.13 77.9776C318.13 80.0424 316.848 81.324 314.641 81.324C312.363 81.324 311.01 79.9 311.01 77.3368C311.01 73.6344 314.285 71 318.842 71C327.101 71 332.085 77.1944 332.085 87.5896C332.085 97.7 328.81 103.325 319.055 110.16L326.247 117.066L335.645 109.733C337.995 107.882 338.351 107.17 338.351 104.25V82.392C338.351 75.0584 341.768 71 347.963 71C351.95 71 354.584 73.2784 354.584 76.696C354.584 79.1168 353.303 80.5408 351.024 80.5408C348.959 80.5408 347.749 79.4016 347.749 77.3368C347.749 75.6992 348.675 74.56 350.312 74.3464V74.1328C349.814 73.6344 348.959 73.3496 348.034 73.3496C345.471 73.3496 344.474 74.916 344.474 78.832V112.296C344.474 116.07 345.827 116.71 349.031 114.574L351.665 112.794L353.018 114.574L341.697 122.406C339.205 120.413 338.351 118.419 338.351 114.503V110.516H338.066C337.639 110.943 336.713 111.726 335.787 112.51L323.185 122.406Z" fill="#A6A09B"/>
<path d="M264.948 122.264L263.097 120.982L270.003 112.225L276.625 116.497C279.045 113.364 279.615 111.798 279.615 107.882V85.6672C279.615 77.2656 277.265 73.3496 272.139 73.3496C268.721 73.3496 266.301 75.628 266.301 78.9032C266.301 80.968 267.084 82.5344 268.935 84.5992L270.786 86.664C273.563 89.7256 274.773 92.2888 274.773 94.9232C274.773 99.9072 271.356 102.826 265.517 102.826C260.533 102.826 257.685 99.48 258.397 94.3536H260.676C260.32 98.056 262.171 100.406 265.517 100.406C268.152 100.406 269.861 98.8392 269.861 96.4896C269.861 94.7808 269.433 94.0688 266.087 90.3664L264.378 88.444C262.171 85.952 261.245 83.7448 261.245 81.1816C261.245 75.272 266.229 71 273.136 71C277.55 71 280.968 72.6376 283.104 75.7704H283.46C285.525 72.6376 288.586 71 292.502 71C297.059 71 299.907 72.9936 301.758 77.5504L303.111 80.8256C304.464 84.1008 305.176 84.5992 307.597 84.172L308.38 86.3792L297.344 91.3632L298.198 101.046C299.266 112.866 300.405 115.998 303.752 115.998C305.176 115.998 306.173 115.642 308.166 114.361L310.587 112.794L311.869 114.574L300.405 122.406C294.994 120.128 293.357 116.782 292.431 105.959L291.434 93.9976L285.809 96.5608V102.755C285.809 107.597 284.599 110.302 279.829 116.283L274.916 122.406L268.294 118.134L264.948 122.264ZM290.366 73.9904C288.017 73.9904 285.809 75.272 284.101 77.4792C285.24 79.8288 285.809 82.748 285.809 86.4504V93.784L301.972 86.4504L301.901 86.0944C299.195 86.0232 298.198 85.1688 296.917 81.7512L295.706 78.5472C294.353 75.1296 293.072 73.9904 290.366 73.9904Z" fill="#A6A09B"/>
<path d="M230.594 122.406C214.289 122.406 205.674 113.364 205.674 96.276C205.674 80.4696 214.004 71 227.959 71C229.811 71 231.733 71.2136 233.584 71.712V73.492C228.814 75.1296 226.464 77.9776 226.464 82.1784C226.464 85.7384 227.675 88.5864 230.451 91.5768L232.943 94.2112L235.934 92.0752C243.481 86.664 244.905 85.3112 244.905 83.1752C244.905 81.68 244.335 80.8968 242.271 79.4728L239.992 77.9776L235.151 82.5344L233.584 81.1104L242.128 71.9968L246.187 74.6312C249.747 76.9808 251.171 78.9032 251.171 81.4664C251.171 84.4568 249.319 86.5928 244.264 89.3696V89.5832C251.028 89.868 255.229 94.3536 255.229 101.26C255.229 113.435 244.763 122.406 230.594 122.406ZM230.594 119.558C241.772 119.558 248.607 113.435 248.607 103.396V101.758C248.607 95.6352 246.4 92.6448 241.986 92.6448C239.779 92.6448 237.785 93.4992 234.367 95.7776C236.788 98.4832 237.785 100.619 237.785 103.254C237.785 108.309 234.225 111.584 228.671 111.584C223.616 111.584 220.697 108.166 221.409 103.111H223.687C223.331 106.742 225.325 109.163 228.671 109.163C231.092 109.163 232.872 107.597 232.872 105.461C232.872 103.325 232.374 102.47 229.241 99.124L225.752 95.4216C222.762 92.2176 221.48 89.156 221.48 85.0976C221.48 80.1136 224.186 75.984 229.099 73.3496V73.0648H228.458C218.205 73.0648 212.082 80.8256 212.082 93.9264V97.344C212.082 111.584 218.703 119.558 230.594 119.558Z" fill="#A6A09B"/>
<path d="M179.66 122.406C171.471 122.406 166.843 118.49 162.999 115.357C160.364 113.221 158.086 111.37 155.309 111.37C152.817 111.37 151.251 112.794 151.251 115.215C151.251 116.354 151.535 117.28 151.963 117.921H152.176C152.603 116.354 153.743 115.571 155.38 115.571C157.374 115.571 158.584 116.853 158.584 118.846C158.584 121.053 157.231 122.335 154.739 122.335C151.251 122.335 148.688 119.416 148.688 115.429C148.688 110.943 151.678 107.953 156.163 107.953C157.445 107.953 158.584 108.095 160.151 108.451C162.287 106.6 163.639 104.108 163.639 101.901C163.639 99.8358 162.927 97.9134 161.147 95.3502L158.015 90.8646C155.807 87.803 155.024 85.667 155.024 83.0326C155.024 77.6214 160.507 73.3494 170.403 71.2134L171.614 72.7798C170.759 75.2006 172.183 76.4822 175.886 76.767L182.721 77.2654C194.042 78.1198 199.667 85.3822 199.667 99.2662C199.667 112.937 191.479 122.406 179.66 122.406ZM181.083 115.998C190.339 115.998 196.249 109.519 196.249 99.2662C196.249 89.5118 191.763 84.5278 182.151 83.7446L173.892 83.1038C169.264 82.7478 166.986 80.9678 166.986 77.7638C166.986 76.6246 167.484 75.2718 168.267 74.275L168.125 74.0614C162.785 75.5566 160.151 77.6926 160.151 80.3982C160.151 82.463 160.863 83.9582 163.639 88.0878L166.843 92.7158C168.339 94.8518 169.122 97.2726 169.122 99.6934C169.122 103.182 166.986 106.173 162.287 109.234C163.639 109.875 165.063 110.587 166.701 111.513C171.685 114.289 175.53 115.998 181.083 115.998Z" fill="#A6A09B"/>
<path d="M112.01 131.52C107.525 131.52 104.321 128.956 104.321 125.396C104.321 122.904 105.602 121.552 107.809 121.552C109.874 121.552 111.156 122.762 111.156 124.756C111.156 126.464 110.373 127.604 108.877 127.888V128.102C109.376 128.743 110.515 129.17 111.797 129.17C115.214 129.17 116.496 127.105 116.496 121.694V113.506C115.784 113.435 115.357 113.364 114.929 113.364C112.437 113.364 111.085 114.289 109.945 116.639L109.162 118.276L107.382 117.493L108.165 115.642C109.874 111.299 112.722 109.092 116.496 109.092V85.6668C116.496 77.2652 114.146 73.3492 109.02 73.3492C105.602 73.3492 103.181 75.6275 103.181 78.9027C103.181 80.9675 103.965 82.5339 105.816 84.5987L107.667 86.6636C110.444 89.7251 111.654 92.2884 111.654 94.9228C111.654 99.9068 108.237 102.826 102.398 102.826C97.4142 102.826 94.5662 99.4796 95.2782 94.3531H97.5566C97.2006 98.0556 99.0518 100.405 102.398 100.405C105.033 100.405 106.741 98.8388 106.741 96.4892C106.741 94.7804 106.314 94.0684 102.968 90.366L101.259 88.4436C99.0518 85.9516 98.1262 83.7444 98.1262 81.1812C98.1262 75.2716 103.11 70.9995 110.017 70.9995C116.425 70.9995 120.697 74.4883 122.121 80.8963H122.405C122.761 80.1131 123.616 79.1164 124.897 77.9771L134.225 69.8604L139.849 80.3979C143.053 86.3787 144.406 90.9355 144.406 95.4923C144.406 101.26 141.558 107.312 135.506 114.432L128.742 122.406L126.321 119.985C124.541 118.276 123.616 117.28 122.69 116.496V118.988C122.69 126.82 118.632 131.52 112.01 131.52ZM138.497 97.486C138.497 93.4988 137.357 89.7252 134.509 84.3852L130.38 76.5532L125.04 81.1812C123.402 82.6764 122.69 84.314 122.69 86.45V110.587C124.684 111.797 126.321 113.15 129.098 115.927L130.166 116.995L131.661 115.215C136.218 109.804 138.497 103.894 138.497 97.486Z" fill="#A6A09B"/>
<path d="M68.546 131.52C59.1476 131.52 51.814 127.034 51.814 121.196C51.814 118.276 53.4516 116.425 56.1572 116.425C58.7204 116.425 60.358 118.063 60.358 120.484C60.358 122.691 59.1476 124.115 57.154 124.328V124.613C59.29 127.034 63.8468 128.6 68.6172 128.6C79.2972 128.6 84.922 122.05 84.922 109.661C84.922 105.033 84.4948 100.832 83.5692 95.2788L80.4364 77.194L76.8052 80.042C74.3844 82.0356 73.4588 83.7444 73.4588 86.45V94.7803C73.4588 100.548 72.6756 102.399 67.9764 107.668L65.4844 110.444L68.8308 113.435C70.326 114.788 71.3228 115.286 72.6044 115.286C73.6012 115.286 74.3132 114.859 76.378 112.936L77.9444 114.36L70.2548 122.406L59.7172 113.435L63.7044 108.949C66.6948 105.532 67.2644 103.68 67.2644 97.2011V85.6668C67.2644 77.2652 64.9148 73.3492 59.7884 73.3492C56.442 73.3492 54.0924 75.6275 54.0924 79.0452C54.0924 81.0388 54.7332 82.4627 56.6556 84.5987L58.5068 86.6636C61.426 89.9387 62.494 92.0748 62.494 94.638C62.494 99.6932 58.934 102.826 53.238 102.826C48.254 102.826 45.406 99.4796 46.118 94.3531H48.3964C48.0404 98.0556 49.8916 100.405 53.238 100.405C55.9436 100.405 57.5812 98.91 57.5812 96.418C57.5812 94.7804 56.7268 93.4276 54.2348 90.722L52.0988 88.4436C49.8916 86.094 48.966 83.958 48.966 81.1812C48.966 75.414 53.8076 70.9995 60.0732 70.9995C67.0508 70.9995 71.394 74.3459 72.8892 80.8963H73.174C73.6012 79.7571 74.4556 78.7604 75.8084 77.6924L85.634 69.8604L89.6212 92.6443C90.7604 98.9099 91.1164 102.684 91.1164 107.169C91.1164 122.62 82.8572 131.52 68.546 131.52Z" fill="#A6A09B"/>
<path d="M34.9738 122.406C30.1322 122.406 25.1482 119.772 20.3778 117.138C15.7498 114.574 11.4066 112.011 7.63301 112.011C4.8562 112.011 3.14741 113.506 3.14741 115.927C3.14741 116.639 3.28981 117.138 3.57461 117.778H3.78821C4.07301 116.426 5.141 115.642 6.7786 115.642C8.77221 115.642 9.91141 116.853 9.91141 118.846C9.91141 121.125 8.70101 122.335 6.35141 122.335C3.14741 122.335 0.797805 119.345 0.797805 115.286C0.797805 110.302 4.28661 107.027 9.69781 107.027C13.1866 107.027 16.9602 108.309 22.5138 111.37C24.721 109.377 25.7178 107.526 25.7178 105.247C25.7178 103.396 25.1482 101.972 23.8666 100.334L20.9474 96.7744C19.2386 94.6384 18.313 92.5736 18.313 90.58C18.313 87.5184 20.093 84.8128 24.0802 81.8936L19.381 79.4728C14.397 76.9096 12.3322 76.1976 9.5554 76.1976C5.497 76.1976 3.07621 78.5472 3.07621 82.6056C3.07621 84.8128 3.78821 86.5928 4.99861 87.4472H5.28341C5.42581 85.596 6.4938 84.6704 8.4162 84.6704C10.4098 84.6704 11.549 85.8808 11.549 87.8744C11.549 90.0816 10.125 91.3632 7.63301 91.3632C3.36101 91.3632 0.370605 87.5896 0.370605 82.1784C0.370605 75.3432 4.5714 71 11.2642 71C14.8954 71 18.1706 71.9968 23.0122 74.6312L30.5594 78.6896C33.977 80.5408 35.8994 81.2528 37.7506 81.2528C40.1002 81.2528 41.6666 79.6864 41.6666 77.408C41.6666 74.4888 39.1746 73.2072 34.9026 73.9904L34.5466 71.712C40.6698 70.5016 44.657 72.9224 44.657 77.9064C44.657 82.9616 41.3818 86.1656 36.1842 86.1656C33.6922 86.1656 30.7018 85.3112 27.4266 83.6024L26.0738 82.8904C24.5074 84.3856 23.7954 85.6672 23.7954 87.3048C23.7954 89.156 24.6498 90.936 26.857 93.7128L29.6338 97.2728C31.129 99.1952 31.7698 100.904 31.7698 103.04C31.7698 106.03 29.4914 109.021 24.5786 112.51C31.3426 116.354 34.0482 117.422 36.6826 117.422C40.4562 117.422 42.0226 115.856 42.3786 111.584H44.657C44.5146 118.989 41.453 122.406 34.9738 122.406Z" fill="#A6A09B"/>
<path d="M474.807 51.4064C460.14 51.4064 452.023 42.0792 452.023 25.2048C452.023 9.7544 458.574 0 469.04 0C472.743 0 475.591 1.3528 477.798 4.1296L483.636 0C486.983 4.1296 489.19 5.7672 491.397 5.7672C493.106 5.7672 494.459 4.9128 495.384 3.0616L496.096 1.7088L497.876 2.492L497.164 4.2008C495.171 8.9712 492.607 11.1072 489.047 11.1072C486.128 11.1072 483.779 9.612 479.934 5.1264L478.367 6.1944C475.875 7.9744 474.807 9.612 474.807 11.8192C474.807 14.0976 475.377 15.0232 479.293 19.0816L481.571 21.4312C481.927 21.716 482.141 22.072 482.711 22.7128L489.19 16.02L494.53 20.3632L497.022 17.8L498.659 19.2952L491.895 26.0592L486.769 21.7872L484.063 24.4928C485.274 26.2728 485.772 27.9104 485.772 29.7616C485.772 34.8168 482.212 38.092 476.659 38.092C471.746 38.092 468.969 34.8168 469.681 29.8328H471.959C471.532 33.3928 473.383 35.6712 476.659 35.6712C479.079 35.6712 480.859 34.1048 480.859 31.9688C480.859 29.8328 480.219 28.6936 477.228 25.632L474.736 23.0688C471.888 20.1496 470.678 17.5864 470.678 14.4536C470.678 10.9648 472.315 8.1168 475.875 5.4824C474.238 3.4888 472.173 2.5632 469.539 2.5632C462.703 2.5632 458.431 10.1816 458.431 22.3568V26.4152C458.431 38.8752 465.053 46.28 476.231 46.28C486.698 46.28 493.391 41.5808 495.811 32.3248L497.734 32.752C495.171 44.856 487.125 51.4064 474.807 51.4064Z" fill="#A6A09B"/>
<path d="M428.718 51.4064C422.595 51.4064 418.251 49.84 414.335 46.2088L412.484 44.5C408.426 40.7264 407.002 39.872 404.723 39.872C402.231 39.872 400.665 41.5808 400.665 44.2152C400.665 45.4256 400.879 46.3512 401.306 46.992H401.519C401.875 45.4968 403.015 44.6424 404.723 44.6424C406.788 44.6424 407.998 45.8528 407.998 47.9176C407.998 50.1248 406.646 51.3352 404.083 51.3352C400.665 51.3352 398.244 48.2024 398.244 43.788C398.244 38.804 401.448 35.4576 406.361 35.4576C409.636 35.4576 412.199 36.5256 415.19 39.2312C417.824 36.3832 418.679 33.3216 418.679 26.9136V14.6672C418.679 6.2656 416.329 2.3496 411.203 2.3496C407.856 2.3496 405.506 4.628 405.506 8.0456C405.506 10.0392 406.147 11.4632 408.07 13.5992L409.921 15.664C412.84 18.9392 413.908 21.0752 413.908 23.6384C413.908 28.6936 410.348 31.8264 404.652 31.8264C399.668 31.8264 396.82 28.48 397.532 23.3536H399.811C399.455 27.056 401.306 29.4056 404.652 29.4056C407.358 29.4056 408.995 27.9104 408.995 25.4184C408.995 23.7808 408.141 22.428 405.649 19.7224L403.513 17.444C401.306 15.0944 400.38 12.9584 400.38 10.1816C400.38 4.4144 405.222 0 411.487 0C416.258 0 419.818 1.6376 422.096 4.7704H422.523C424.659 1.4952 427.436 0 431.352 0C436.123 0 439.255 2.2784 440.323 6.6928L441.106 9.8256C441.747 12.3888 443.243 13.5992 445.877 13.5992H446.803V15.9488H445.877C441.391 15.9488 439.255 18.0136 439.255 22.4992C439.255 24.7776 440.395 26.7712 441.676 28.9784C443.029 31.4704 444.524 34.2472 444.524 38.2344C444.524 45.9952 438.045 51.4064 428.718 51.4064ZM429.999 48.7008C435.553 48.7008 438.401 45.4256 438.401 39.2312C438.401 35.956 437.119 33.5352 435.838 31.1856C434.556 28.7648 433.274 26.4864 433.274 23.4248C433.274 19.6512 436.194 16.5896 441.035 15.308V15.0232C437.191 14.3824 435.766 13.172 435.126 10.1104L434.627 7.5472C433.987 4.4856 432.278 2.9904 429.287 2.9904C426.867 2.9904 424.731 4.2008 423.164 6.4792C424.303 8.9712 424.873 11.9616 424.873 15.4504V24.0656C424.873 32.04 423.093 35.6 416.614 40.5128C417.539 41.4384 418.109 42.008 419.319 43.1472C423.022 46.7072 425.799 48.7008 429.999 48.7008Z" fill="#A6A09B"/>
<path d="M379.477 51.4064C374.065 51.4064 370.648 49.9112 366.803 45.7104L365.521 44.2864C362.531 40.8688 361.107 39.872 359.113 39.872C356.835 39.872 355.411 41.5808 355.411 44.2152C355.411 45.2832 355.625 46.1376 356.052 46.9208H356.265C356.621 45.4256 357.761 44.6424 359.327 44.6424C361.321 44.6424 362.531 45.8528 362.531 47.8464C362.531 49.9824 361.107 51.3352 358.757 51.3352C355.411 51.3352 352.99 48.06 352.99 43.5032C352.99 38.1632 356.052 34.6744 360.751 34.6744C363.955 34.6744 366.589 36.312 369.651 40.1568L371.217 42.0792C375.133 47.5616 376.842 48.9144 379.619 48.9144C383.037 48.9144 385.03 46.5648 385.03 42.5064C385.03 39.0176 383.606 36.3832 382.182 33.8912C380.901 31.4704 379.619 29.1208 379.619 26.2016C379.619 22.0008 382.681 19.0816 387.166 19.0816C391.794 19.0816 394.144 21.8584 393.717 26.7H391.153C391.367 23.2824 390.37 21.5736 388.305 21.5736C386.739 21.5736 385.813 22.9264 385.813 25.276C385.813 27.056 386.953 28.836 388.163 30.972C389.587 33.6064 391.296 36.8104 391.296 41.0824C391.296 47.348 386.668 51.4064 379.477 51.4064ZM385.956 16.5184C382.965 16.5184 380.117 15.4504 376.771 13.0296L371.787 9.3272C366.945 5.6248 365.023 4.628 362.602 4.628C359.185 4.628 357.049 7.2624 357.049 11.6056C357.049 13.884 357.618 15.664 358.615 16.4472H358.829C358.971 14.6672 360.039 13.6704 361.819 13.6704C363.741 13.6704 364.952 14.8808 364.952 16.8744C364.952 19.0816 363.528 20.3632 361.178 20.3632C357.262 20.3632 354.343 16.4472 354.343 11.1784C354.343 4.4856 358.473 0 364.596 0C368.227 0 371.36 1.3528 375.703 4.8416L380.616 8.4728C383.677 10.8224 385.6 11.748 387.593 11.748C390.085 11.748 391.438 10.1816 391.438 7.476C391.438 4.4144 389.373 3.0616 385.742 3.7024L385.529 1.2104C390.94 0.213602 394.357 2.7056 394.357 7.6896C394.357 13.0296 391.082 16.5184 385.956 16.5184Z" fill="#A6A09B"/>
<path d="M341.884 51.4064C337.043 51.4064 332.059 48.772 327.288 46.1376C322.66 43.5744 318.317 41.0112 314.544 41.0112C311.767 41.0112 310.058 42.5064 310.058 44.9272C310.058 45.6392 310.2 46.1376 310.485 46.7784H310.699C310.984 45.4256 312.052 44.6424 313.689 44.6424C315.683 44.6424 316.822 45.8528 316.822 47.8464C316.822 50.1248 315.612 51.3352 313.262 51.3352C310.058 51.3352 307.708 48.3448 307.708 44.2864C307.708 39.3024 311.197 36.0272 316.608 36.0272C320.097 36.0272 323.871 37.3088 329.424 40.3704C331.632 38.3768 332.628 36.5256 332.628 34.2472C332.628 32.396 332.059 30.972 330.777 29.3344L327.858 25.7744C326.149 23.6384 325.224 21.5736 325.224 19.58C325.224 16.5184 327.004 13.8128 330.991 10.8936L326.292 8.4728C321.308 5.9096 319.243 5.1976 316.466 5.1976C312.408 5.1976 309.987 7.5472 309.987 11.6056C309.987 13.8128 310.699 15.5928 311.909 16.4472H312.194C312.336 14.596 313.404 13.6704 315.327 13.6704C317.32 13.6704 318.46 14.8808 318.46 16.8744C318.46 19.0816 317.036 20.3632 314.544 20.3632C310.272 20.3632 307.281 16.5896 307.281 11.1784C307.281 4.3432 311.482 0 318.175 0C321.806 0 325.081 0.9968 329.923 3.6312L337.47 7.6896C340.888 9.5408 342.81 10.2528 344.661 10.2528C347.011 10.2528 348.577 8.6864 348.577 6.408C348.577 3.4888 346.085 2.2072 341.813 2.9904L341.457 0.712C347.58 -0.498397 351.568 1.9224 351.568 6.9064C351.568 11.9616 348.292 15.1656 343.095 15.1656C340.603 15.1656 337.612 14.3112 334.337 12.6024L332.984 11.8904C331.418 13.3856 330.706 14.6672 330.706 16.3048C330.706 18.156 331.56 19.936 333.768 22.7128L336.544 26.2728C338.04 28.1952 338.68 29.904 338.68 32.04C338.68 35.0304 336.402 38.0208 331.489 41.5096C338.253 45.3544 340.959 46.4224 343.593 46.4224C347.367 46.4224 348.933 44.856 349.289 40.584H351.568C351.425 47.9888 348.364 51.4064 341.884 51.4064Z" fill="#A6A09B"/>
<path d="M275.07 51.4064L264.746 41.3672V40.0144C276.138 35.1728 277.491 27.9104 277.491 21.36V16.8032C277.491 7.9032 274.643 2.492 269.872 2.492C268.591 2.492 267.309 2.9904 266.668 3.7024V3.916C268.733 3.7736 270.015 4.984 270.015 6.9776C270.015 9.0424 268.733 10.324 266.526 10.324C264.247 10.324 262.895 8.9 262.895 6.3368C262.895 2.6344 266.17 0 270.727 0C278.986 0 283.97 6.1944 283.97 16.5896C283.97 26.7 280.695 32.3248 270.94 39.16L278.131 46.0664L287.53 38.7328C289.879 36.8816 290.235 36.1696 290.235 33.2504V11.392C290.235 4.0584 293.653 0 299.847 0C303.835 0 306.469 2.2784 306.469 5.696C306.469 8.1168 305.187 9.5408 302.909 9.5408C300.844 9.5408 299.634 8.4016 299.634 6.3368C299.634 4.6992 300.559 3.56 302.197 3.3464V3.1328C301.699 2.6344 300.844 2.3496 299.919 2.3496C297.355 2.3496 296.359 3.916 296.359 7.832V41.296C296.359 45.0696 297.711 45.7104 300.915 43.5744L303.55 41.7944L304.903 43.5744L293.582 51.4064C291.09 49.4128 290.235 47.4192 290.235 43.5032V39.516H289.951C289.523 39.9432 288.598 40.7264 287.672 41.5096L275.07 51.4064Z" fill="#A6A09B"/>
<path d="M216.832 51.264L214.981 49.9824L221.888 41.2248L228.509 45.4968C230.93 42.364 231.5 40.7976 231.5 36.8816V14.6672C231.5 6.2656 229.15 2.3496 224.024 2.3496C220.606 2.3496 218.185 4.628 218.185 7.9032C218.185 9.968 218.968 11.5344 220.82 13.5992L222.671 15.664C225.448 18.7256 226.658 21.2888 226.658 23.9232C226.658 28.9072 223.24 31.8264 217.402 31.8264C212.418 31.8264 209.57 28.48 210.282 23.3536H212.56C212.204 27.056 214.056 29.4056 217.402 29.4056C220.036 29.4056 221.745 27.8392 221.745 25.4896C221.745 23.7808 221.318 23.0688 217.972 19.3664L216.263 17.444C214.056 14.952 213.13 12.7448 213.13 10.1816C213.13 4.272 218.114 0 225.02 0C229.435 0 232.852 1.6376 234.988 4.7704H235.344C237.409 1.6376 240.471 0 244.387 0C248.944 0 251.792 1.9936 253.643 6.5504L254.996 9.8256C256.349 13.1008 257.061 13.5992 259.481 13.172L260.265 15.3792L249.228 20.3632L250.083 30.0464C251.151 41.8656 252.29 44.9984 255.636 44.9984C257.06 44.9984 258.057 44.6424 260.051 43.3608L262.472 41.7944L263.753 43.5744L252.29 51.4064C246.879 49.128 245.241 45.7816 244.316 34.9592L243.319 22.9976L237.694 25.5608V31.7552C237.694 36.5968 236.484 39.3024 231.713 45.2832L226.8 51.4064L220.179 47.1344L216.832 51.264ZM242.251 2.9904C239.901 2.9904 237.694 4.272 235.985 6.4792C237.124 8.8288 237.694 11.748 237.694 15.4504V22.784L253.856 15.4504L253.785 15.0944C251.08 15.0232 250.083 14.1688 248.801 10.7512L247.591 7.5472C246.238 4.1296 244.956 2.9904 242.251 2.9904Z" fill="#A6A09B"/>
<path d="M183.679 51.4064C169.011 51.4064 160.895 42.0792 160.895 25.2048C160.895 9.7544 167.445 0 177.911 0C181.614 0 184.462 1.3528 186.669 4.1296L192.507 0C195.854 4.1296 198.061 5.7672 200.268 5.7672C201.977 5.7672 203.33 4.9128 204.255 3.0616L204.967 1.7088L206.747 2.492L206.035 4.2008C204.042 8.9712 201.479 11.1072 197.919 11.1072C194.999 11.1072 192.65 9.612 188.805 5.1264L187.239 6.1944C184.747 7.9744 183.679 9.612 183.679 11.8192C183.679 14.0976 184.248 15.0232 188.164 19.0816L190.443 21.4312C190.799 21.716 191.012 22.072 191.582 22.7128L198.061 16.02L203.401 20.3632L205.893 17.8L207.531 19.2952L200.767 26.0592L195.64 21.7872L192.935 24.4928C194.145 26.2728 194.643 27.9104 194.643 29.7616C194.643 34.8168 191.083 38.092 185.53 38.092C180.617 38.092 177.84 34.8168 178.552 29.8328H180.831C180.403 33.3928 182.255 35.6712 185.53 35.6712C187.951 35.6712 189.731 34.1048 189.731 31.9688C189.731 29.8328 189.09 28.6936 186.099 25.632L183.607 23.0688C180.759 20.1496 179.549 17.5864 179.549 14.4536C179.549 10.9648 181.187 8.1168 184.747 5.4824C183.109 3.4888 181.044 2.5632 178.41 2.5632C171.575 2.5632 167.303 10.1816 167.303 22.3568V26.4152C167.303 38.8752 173.924 46.28 185.103 46.28C195.569 46.28 202.262 41.5808 204.683 32.3248L206.605 32.752C204.042 44.856 195.996 51.4064 183.679 51.4064Z" fill="#A6A09B"/>
<path d="M110.797 51.264L108.946 49.9824L115.853 41.2248L122.474 45.4968C124.824 42.364 125.465 40.5128 125.465 36.8816V14.6672C125.465 6.2656 123.115 2.3496 117.989 2.3496C114.5 2.3496 112.221 4.5568 112.221 7.9032C112.221 9.968 112.933 11.5344 114.785 13.5992L116.636 15.664C119.413 18.7256 120.623 21.2888 120.623 23.9232C120.623 28.9072 117.205 31.8264 111.367 31.8264C106.383 31.8264 103.535 28.48 104.247 23.3536H106.525C106.169 27.056 108.021 29.4056 111.367 29.4056C114.001 29.4056 115.71 27.8392 115.71 25.4896C115.71 23.7808 115.283 23.0688 111.937 19.3664L110.228 17.444C108.021 14.952 107.095 12.7448 107.095 10.1816C107.095 4.4144 111.937 0 118.273 0C123.044 0 126.604 1.6376 128.882 4.7704H129.309C131.445 1.4952 134.222 0 138.138 0C142.909 0 146.041 2.2784 147.109 6.6928L147.893 9.8256C148.533 12.3888 150.1 13.5992 152.663 13.5992H153.589V15.9488H152.663C147.608 15.9488 145.116 20.7192 145.116 30.3312V35.6C145.116 41.7944 146.611 44.9984 149.601 44.9984C151.168 44.9984 152.236 44.5 156.437 41.8656L157.718 43.5744L146.255 51.4064C140.915 49.0568 138.85 44.856 138.85 36.0984V31.1856C138.85 21.8584 141.556 16.9456 147.75 15.308V15.0232C143.977 14.3824 142.481 13.172 141.698 10.1104L141.057 7.5472C140.203 4.272 138.85 2.9904 136.073 2.9904C133.653 2.9904 131.517 4.2008 129.95 6.4792C131.089 8.9712 131.659 11.9616 131.659 15.4504V31.7552C131.659 36.5968 130.449 39.3024 125.678 45.2832L120.765 51.4064L114.144 47.1344L110.797 51.264Z" fill="#A6A09B"/>
<path d="M77.6434 51.4064C62.9762 51.4064 54.8594 42.0792 54.8594 25.2048C54.8594 9.7544 61.4098 0 71.8762 0C75.5786 0 78.4266 1.3528 80.6338 4.1296L86.4722 0C89.8186 4.1296 92.0258 5.7672 94.233 5.7672C95.9418 5.7672 97.2946 4.9128 98.2202 3.0616L98.9322 1.7088L100.712 2.492L100 4.2008C98.0066 8.9712 95.4434 11.1072 91.8834 11.1072C88.9642 11.1072 86.6146 9.612 82.7698 5.1264L81.2034 6.1944C78.7114 7.9744 77.6434 9.612 77.6434 11.8192C77.6434 14.0976 78.213 15.0232 82.129 19.0816L84.4074 21.4312C84.7634 21.716 84.977 22.072 85.5466 22.7128L92.0258 16.02L97.3658 20.3632L99.8578 17.8L101.495 19.2952L94.7314 26.0592L89.605 21.7872L86.8994 24.4928C88.1098 26.2728 88.6082 27.9104 88.6082 29.7616C88.6082 34.8168 85.0482 38.092 79.4946 38.092C74.5818 38.092 71.805 34.8168 72.517 29.8328H74.7954C74.3682 33.3928 76.2194 35.6712 79.4946 35.6712C81.9154 35.6712 83.6954 34.1048 83.6954 31.9688C83.6954 29.8328 83.0546 28.6936 80.0642 25.632L77.5722 23.0688C74.7242 20.1496 73.5138 17.5864 73.5138 14.4536C73.5138 10.9648 75.1514 8.1168 78.7114 5.4824C77.0738 3.4888 75.009 2.5632 72.3746 2.5632C65.5394 2.5632 61.2674 10.1816 61.2674 22.3568V26.4152C61.2674 38.8752 67.889 46.28 79.0674 46.28C89.5338 46.28 96.2266 41.5808 98.6474 32.3248L100.57 32.752C98.0066 44.856 89.961 51.4064 77.6434 51.4064Z" fill="#A6A09B"/>
<path d="M24.92 51.4064C8.6152 51.4064 0 42.364 0 25.276C0 9.4696 8.3304 0 22.2856 0C24.1368 0 26.0592 0.213602 27.9104 0.712V2.492C23.14 4.1296 20.7904 6.9776 20.7904 11.1784C20.7904 14.7384 22.0008 17.5864 24.7776 20.5768L27.2696 23.2112L30.26 21.0752C37.8072 15.664 39.2312 14.3112 39.2312 12.1752C39.2312 10.68 38.6616 9.8968 36.5968 8.4728L34.3184 6.9776L29.4768 11.5344L27.9104 10.1104L36.4544 0.9968L40.5128 3.6312C44.0728 5.9808 45.4968 7.9032 45.4968 10.4664C45.4968 13.4568 43.6456 15.5928 38.5904 18.3696V18.5832C45.3544 18.868 49.5552 23.3536 49.5552 30.26C49.5552 42.4352 39.0888 51.4064 24.92 51.4064ZM24.92 48.5584C36.0984 48.5584 42.9336 42.4352 42.9336 32.396V30.7584C42.9336 24.6352 40.7264 21.6448 36.312 21.6448C34.1048 21.6448 32.1112 22.4992 28.6936 24.7776C31.1144 27.4832 32.1112 29.6192 32.1112 32.2536C32.1112 37.3088 28.5512 40.584 22.9976 40.584C17.9424 40.584 15.0232 37.1664 15.7352 32.1112H18.0136C17.6576 35.7424 19.6512 38.1632 22.9976 38.1632C25.4184 38.1632 27.1984 36.5968 27.1984 34.4608C27.1984 32.3248 26.7 31.4704 23.5672 28.124L20.0784 24.4216C17.088 21.2176 15.8064 18.156 15.8064 14.0976C15.8064 9.1136 18.512 4.984 23.4248 2.3496V2.0648H22.784C12.5312 2.0648 6.408 9.8256 6.408 22.9264V26.344C6.408 40.584 13.0296 48.5584 24.92 48.5584Z" fill="#A6A09B"/>
</svg>
